<svg version="1.1" viewBox="0 0 600 600" xmlns="http://www.w3.org/2000/svg" xmlnsXlink="http://www.w3.org/1999/xlink"><path transform="matrix(1.8762 1.7706e-15 -1.7706e-15 1.8762 -207.21 -172.3)" d="m250.45 379.02c-47.378 0.34965-120.8-72.552-113.29-105.94 7.5175-33.392 111.01-94.056 158.39-94.406 47.378-0.34965 133.39 58.916 125.87 92.308-7.5175 33.392-123.6 107.69-170.98 108.04-47.378 0.34965-120.8-72.552-113.29-105.94" fill="#f87537" stroke="hsl(340, 45%, 30%)" strokeOpacity="0.05" strokeWidth="11"/><path transform="matrix(1.8715 0 0 1.8715 -50.766 3.3153)" d="m151.03 229.55c-47.378 0.34965-120.8-72.552-113.29-105.94 7.5175-33.392 111.01-94.056 158.39-94.406 47.378-0.34965 133.39 58.916 125.87 92.308-7.5175 33.392-123.6 107.69-170.98 108.04-47.378 0.34965-120.8-72.552-113.29-105.94" fill="#fba81f" stroke="hsl(340, 45%, 30%)" fillOpacity="0.88" strokeOpacity="0.05" strokeWidth="10"/></svg>